<svg width="38" height="38" viewBox="0 0 38 38" fill="none" xmlns="http://www.w3.org/2000/svg">
<g clip-path="url(#clip0_5134_3050)">
<g clip-path="url(#clip1_5134_3050)">
<mask id="mask0_5134_3050" style="mask-type:luminance" maskUnits="userSpaceOnUse" x="0" y="0" width="38" height="38">
<path d="M38 0H0V38H38V0Z" fill="white"/>
</mask>
<g mask="url(#mask0_5134_3050)">
<path d="M9.1356 29.1726L6.71309 29.513L6.67351 35.1734L9.09602 34.833L9.1356 29.1726Z" fill="url(#paint0_linear_5134_3050)"/>
<path d="M6.67375 35.1734L4.55209 34.0255L4.59167 28.3651L6.71334 29.513L6.67375 35.1734Z" fill="url(#paint1_linear_5134_3050)"/>
<path d="M33.4795 25.7686L31.0491 26.109L31.0095 31.7694L33.432 31.429L33.4795 25.7686Z" fill="url(#paint2_linear_5134_3050)"/>
<path d="M31.0097 31.7694L28.8881 30.6215L28.9356 24.9611L31.0493 26.109L31.0097 31.7694Z" fill="url(#paint3_linear_5134_3050)"/>
<path d="M35.0553 3.97418L35.0157 25.5312L5.06698 29.7429L5.10656 8.18583L35.0553 3.97418Z" fill="url(#paint4_linear_5134_3050)"/>
<path d="M5.06722 29.7428L2.94556 28.587L2.98514 7.02991L5.10681 8.18576L5.06722 29.7428Z" fill="url(#paint5_linear_5134_3050)"/>
<path d="M5.10742 8.18568L2.98576 7.02986L32.9345 2.82611L35.0562 3.97403L5.10742 8.18568Z" fill="url(#paint6_linear_5134_3050)"/>
</g>
</g>
</g>
<defs>
<linearGradient id="paint0_linear_5134_3050" x1="31.9673" y1="0.0630304" x2="-3.86359" y2="47.8797" gradientUnits="userSpaceOnUse">
<stop stop-color="white"/>
<stop offset="0.27" stop-color="#6170F2"/>
<stop offset="0.5" stop-color="#2E38B0"/>
<stop offset="0.72" stop-color="#152177"/>
<stop offset="1" stop-color="#152177" stop-opacity="0"/>
</linearGradient>
<linearGradient id="paint1_linear_5134_3050" x1="3.42" y1="27.328" x2="10.6717" y2="41.8709" gradientUnits="userSpaceOnUse">
<stop stop-color="white"/>
<stop offset="0.27" stop-color="#6170F2"/>
<stop offset="0.5" stop-color="#2E38B0"/>
<stop offset="0.72" stop-color="#152177"/>
<stop offset="1" stop-color="#152177" stop-opacity="0"/>
</linearGradient>
<linearGradient id="paint2_linear_5134_3050" x1="43.2487" y1="14.0836" x2="7.4179" y2="61.9003" gradientUnits="userSpaceOnUse">
<stop stop-color="white"/>
<stop offset="0.27" stop-color="#6170F2"/>
<stop offset="0.5" stop-color="#2E38B0"/>
<stop offset="0.72" stop-color="#152177"/>
<stop offset="1" stop-color="#152177" stop-opacity="0"/>
</linearGradient>
<linearGradient id="paint3_linear_5134_3050" x1="39.3302" y1="3.42775" x2="25.6502" y2="39.8682" gradientUnits="userSpaceOnUse">
<stop stop-color="white"/>
<stop offset="0.27" stop-color="#6170F2"/>
<stop offset="0.5" stop-color="#2E38B0"/>
<stop offset="0.72" stop-color="#152177"/>
<stop offset="1" stop-color="#152177" stop-opacity="0"/>
</linearGradient>
<linearGradient id="paint4_linear_5134_3050" x1="33.9232" y1="1.28252" x2="-3.34844" y2="43.1537" gradientUnits="userSpaceOnUse">
<stop stop-color="white"/>
<stop offset="0.27" stop-color="#6170F2"/>
<stop offset="0.5" stop-color="#2E38B0"/>
<stop offset="0.72" stop-color="#152177"/>
<stop offset="1" stop-color="#152177" stop-opacity="0"/>
</linearGradient>
<linearGradient id="paint5_linear_5134_3050" x1="-2.67528" y1="4.93991" x2="19.2539" y2="48.9566" gradientUnits="userSpaceOnUse">
<stop stop-color="white"/>
<stop offset="0.27" stop-color="#6170F2"/>
<stop offset="0.5" stop-color="#2E38B0"/>
<stop offset="0.72" stop-color="#152177"/>
<stop offset="1" stop-color="#152177" stop-opacity="0"/>
</linearGradient>
<linearGradient id="paint6_linear_5134_3050" x1="42.6324" y1="-2.48597" x2="-20.4871" y2="18.8653" gradientUnits="userSpaceOnUse">
<stop stop-color="white"/>
<stop offset="0.27" stop-color="#6170F2"/>
<stop offset="0.5" stop-color="#2E38B0"/>
<stop offset="0.72" stop-color="#152177"/>
<stop offset="1" stop-color="#152177" stop-opacity="0"/>
</linearGradient>
<clipPath id="clip0_5134_3050">
<rect width="38" height="38" fill="white"/>
</clipPath>
<clipPath id="clip1_5134_3050">
<rect width="38" height="38" fill="white"/>
</clipPath>
</defs>
</svg>
